<?xml version="1.0" encoding="UTF-8"?>
<!DOCTYPE svg PUBLIC "-//W3C//DTD SVG 1.1//EN" "http://www.w3.org/Graphics/SVG/1.1/DTD/svg11.dtd">
<!-- Creator: CorelDRAW -->
<svg xmlns="http://www.w3.org/2000/svg" xml:space="preserve" width="2.17772in" height="0.650197in" version="1.1" style="shape-rendering:geometricPrecision; text-rendering:geometricPrecision; image-rendering:optimizeQuality; fill-rule:evenodd; clip-rule:evenodd"
viewBox="0 0 199.11 59.45"
 xmlns:xlink="http://www.w3.org/1999/xlink"
 xmlns:xodm="http://www.corel.com/coreldraw/odm/2003">
 <defs>
  <style type="text/css">
   <![CDATA[
    .fil0 {fill:#373435}
    .fil2 {fill:url(#id0)}
    .fil1 {fill:url(#id1)}
   ]]>
  </style>
  <linearGradient id="id0" gradientUnits="userSpaceOnUse" x1="100.7" y1="15.24" x2="94.59" y2="40.67">
   <stop offset="0" style="stop-opacity:1; stop-color:#31C9F7"/>
   <stop offset="1" style="stop-opacity:1; stop-color:#0C667A"/>
  </linearGradient>
  <linearGradient id="id1" gradientUnits="userSpaceOnUse" xlink:href="#id0" x1="25.42" y1="27.66" x2="1.01" y2="47.84">
  </linearGradient>
 </defs>
 <g id="Layer_x0020_1">
  <metadata id="CorelCorpID_0Corel-Layer"/>
  <path class="fil0" d="M22.04 16.95c0,14.17 0,28.33 0,42.5 -1.61,-2.15 -6.84,-2.12 -6.84,-7.3 0,-9.28 0,-18.56 0,-27.85 0,-4.77 6.57,-6.04 6.84,-7.34zm4.7 0.97c0,1.64 0,3.29 0,4.92 0.05,2.54 0.78,3.5 2.85,4.69 2.9,1.67 5.79,3.35 8.69,5.01 2.25,1.3 2.03,2.57 0.02,3.77 -3.02,1.8 -6.07,3.47 -9.08,5.27 -2.1,1.25 -2.51,2.8 -2.51,5.06 0,1.42 0,2.86 0,4.28 3.17,-2.43 8.42,-4.86 12.63,-7.29 1.62,-0.94 3.16,-1.75 4.44,-2.74 4.47,-3.5 4.05,-10.39 0.23,-12.83 -4.41,-2.82 -11.75,-6.22 -17.25,-10.17l-0.01 0.02z"/>
  <path class="fil1" d="M23.62 13.28c0,1.64 0,3.29 0,4.92 0.05,2.53 0.78,3.5 2.85,4.69 2.9,1.67 5.79,3.35 8.69,5.02 2.25,1.3 2.03,2.57 0.01,3.77 -3.02,1.8 -6.07,3.47 -9.08,5.27 -2.1,1.25 -2.51,2.81 -2.51,5.06 0,1.42 0,2.86 0,4.28 3.17,-2.43 8.42,-4.86 12.63,-7.29 1.62,-0.94 3.16,-1.74 4.44,-2.74 4.47,-3.5 4.05,-10.39 0.23,-12.83 -4.41,-2.82 -11.75,-6.22 -17.26,-10.17l0.01 0.02zm-3.14 -0.97c0,14.17 0,28.33 0,42.5 -1.61,-2.15 -6.84,-2.12 -6.84,-7.3 0,-9.29 0,-18.56 0,-27.85 0,-4.77 6.57,-6.04 6.84,-7.34zm27.3 4.28c0.01,1.33 0.02,2.66 0.03,3.99 -8.01,-4.62 -16.01,-9.25 -24.02,-13.86 -5.65,3.26 -11.28,6.51 -16.93,9.78 0,6 0,12 0,18 0.95,0.55 1.9,1.1 2.85,1.65 0,2.72 0,5.42 0,8.14 -1.5,-1.67 -4.72,-2.53 -6.77,-3.99 -1.94,-1.37 -2.94,-2.94 -2.94,-5.86 0,-5.76 0,-11.5 0,-17.26 0,-3.93 0.77,-5.13 4.12,-7.07 5.14,-3 10.77,-5.97 16,-8.94 2.59,-1.48 4.21,-1.59 6.95,-0.09 5.34,2.92 10.69,5.85 16.03,8.77 3.1,1.7 4.65,3.15 4.68,6.79l-0 -0.03z"/>
  <path class="fil0" d="M56.04 41.26l0 4.43 1.68 0c0.94,0 1.63,-0.17 2.08,-0.53 0.45,-0.36 0.67,-0.91 0.67,-1.65 0,-0.77 -0.22,-1.34 -0.67,-1.7 -0.45,-0.36 -1.17,-0.54 -2.17,-0.54l-1.59 0 -0 -0.01zm-1.14 -1.14l2.47 0c0.71,0 1.27,0.04 1.7,0.11 0.43,0.07 0.78,0.19 1.06,0.36 0.51,0.31 0.91,0.71 1.18,1.2 0.27,0.49 0.41,1.05 0.41,1.66 0,0.59 -0.12,1.13 -0.37,1.63 -0.24,0.5 -0.59,0.9 -1.03,1.18 -0.31,0.2 -0.68,0.36 -1.11,0.45 -0.43,0.09 -0.98,0.14 -1.64,0.14l-1.53 0 0 4.88 -1.14 0 0 -11.62 -0.01 0.01zm14.3 11.62l-1.21 0 4.51 -11.62 1.37 0 4.5 11.62 -1.22 0 -1.39 -3.64 -5.17 0 -1.38 3.64zm6.15 -4.69l-2.21 -5.83 -2.17 5.83 4.37 0zm20.4 -3.92c-0.52,-0.72 -1.1,-1.25 -1.75,-1.6 -0.64,-0.34 -1.37,-0.51 -2.21,-0.51 -1.29,0 -2.4,0.48 -3.32,1.43 -0.92,0.96 -1.37,2.1 -1.37,3.42 0,1.4 0.46,2.59 1.37,3.55 0.92,0.97 2.01,1.44 3.33,1.44 0.8,0 1.53,-0.17 2.18,-0.51 0.65,-0.34 1.21,-0.83 1.69,-1.51l1.35 0c-0.53,0.99 -1.24,1.75 -2.14,2.3 -0.9,0.54 -1.89,0.8 -3.01,0.8 -1.71,0 -3.13,-0.58 -4.27,-1.75 -1.14,-1.17 -1.71,-2.61 -1.71,-4.36 0,-0.81 0.15,-1.59 0.47,-2.32 0.31,-0.72 0.76,-1.38 1.35,-1.97 0.55,-0.55 1.17,-0.98 1.86,-1.25 0.69,-0.28 1.43,-0.43 2.24,-0.43 1.15,0 2.19,0.28 3.11,0.84 0.93,0.56 1.65,1.36 2.19,2.39l-1.37 0 0.01 0.02zm11.38 5.03l0 3.58 -1.13 0 0 -11.62 1.13 0 0 6.45 5.37 -6.45 1.35 0 -4.69 5.62 4.61 6 -1.4 0 -3.94 -5.15 -1.3 1.57zm14.64 3.58l-1.21 0 4.51 -11.62 1.37 0 4.5 11.62 -1.22 0 -1.39 -3.64 -5.17 0 -1.38 3.64zm6.15 -4.69l-2.21 -5.83 -2.17 5.83 4.37 0zm15.18 -0.89l7.22 0c-0.09,1.69 -0.7,3.08 -1.83,4.17 -1.12,1.09 -2.5,1.63 -4.13,1.63 -1.68,0 -3.07,-0.59 -4.21,-1.75 -1.13,-1.17 -1.7,-2.62 -1.7,-4.35 0,-0.81 0.15,-1.59 0.47,-2.32 0.31,-0.72 0.76,-1.38 1.35,-1.97 0.57,-0.57 1.21,-0.99 1.9,-1.27 0.7,-0.27 1.48,-0.42 2.32,-0.42 1.13,0 2.14,0.27 3.03,0.82 0.89,0.55 1.62,1.32 2.16,2.33l-1.4 0c-0.55,-0.7 -1.14,-1.21 -1.76,-1.55 -0.63,-0.34 -1.32,-0.5 -2.1,-0.5 -1.33,0 -2.46,0.48 -3.39,1.43 -0.93,0.96 -1.38,2.11 -1.38,3.44 0,1.42 0.46,2.61 1.38,3.57 0.92,0.95 2.05,1.42 3.41,1.42 1.07,0 2.01,-0.34 2.86,-1.03 0.84,-0.68 1.39,-1.57 1.65,-2.66l-5.87 0 0 -1.03 0.02 0.02zm17.18 5.57l-1.14 0 0 -11.62 1.14 0 0 11.62zm17.12 -1.39l-0.13 -10.22 1.13 0 0 11.62 -1.37 0 -6.37 -10.24 0.13 10.24 -1.13 0 0 -11.62 1.37 0 6.37 10.22zm14.49 -4.18l7.22 0c-0.09,1.69 -0.7,3.08 -1.83,4.17 -1.12,1.09 -2.5,1.63 -4.13,1.63 -1.68,0 -3.07,-0.59 -4.21,-1.75 -1.13,-1.17 -1.7,-2.62 -1.7,-4.35 0,-0.81 0.15,-1.59 0.47,-2.32 0.31,-0.72 0.76,-1.38 1.35,-1.97 0.57,-0.57 1.21,-0.99 1.9,-1.27 0.7,-0.27 1.48,-0.42 2.32,-0.42 1.13,0 2.14,0.27 3.03,0.82 0.9,0.55 1.62,1.32 2.16,2.33l-1.4 0c-0.55,-0.7 -1.14,-1.21 -1.76,-1.55 -0.63,-0.34 -1.32,-0.5 -2.1,-0.5 -1.33,0 -2.46,0.48 -3.39,1.43 -0.93,0.96 -1.38,2.11 -1.38,3.44 0,1.42 0.46,2.61 1.38,3.57 0.92,0.95 2.05,1.42 3.41,1.42 1.07,0 2.01,-0.34 2.86,-1.03 0.84,-0.68 1.39,-1.57 1.65,-2.66l-5.87 0 0 -1.03 0.02 0.02z"/>
  <path class="fil2" d="M60.54 17.86l1.2 0c1.27,0 2.24,-0.27 2.92,-0.82 0.67,-0.55 1.02,-1.33 1.02,-2.35 0,-1.06 -0.33,-1.84 -0.98,-2.36 -0.66,-0.52 -1.65,-0.77 -2.98,-0.77l-1.17 0 0 6.31 -0.01 0zm0 12.84l-4.55 0 0 -23.23 5.78 0c1.48,0 2.62,0.08 3.48,0.24 0.84,0.15 1.53,0.42 2.04,0.76 0.96,0.65 1.71,1.51 2.26,2.56 0.55,1.07 0.82,2.21 0.82,3.42 0,2.22 -0.73,4.01 -2.21,5.33 -1.46,1.33 -3.45,1.99 -5.94,1.99l-1.69 0 0 8.92 -0 0zm24 -10.72c-0.35,-1.17 -0.94,-2.07 -1.76,-2.68 -0.82,-0.62 -1.86,-0.92 -3.11,-0.92 -1.09,0 -2.05,0.34 -2.92,0.99 -0.86,0.66 -1.43,1.53 -1.74,2.6l9.53 0 -0 0zm-9.67 3.23c0.13,1.26 0.64,2.27 1.51,2.99 0.86,0.73 1.98,1.1 3.35,1.1 0.92,0 1.74,-0.19 2.47,-0.58 0.72,-0.38 1.3,-0.92 1.73,-1.61l4.41 0c-0.74,1.91 -1.86,3.4 -3.35,4.46 -1.49,1.06 -3.19,1.59 -5.15,1.59 -1.3,0 -2.51,-0.22 -3.61,-0.69 -1.1,-0.47 -2.09,-1.15 -2.96,-2.05 -0.82,-0.86 -1.48,-1.86 -1.92,-2.99 -0.46,-1.13 -0.68,-2.29 -0.68,-3.48 0,-1.22 0.21,-2.37 0.63,-3.45 0.42,-1.08 1.04,-2.04 1.86,-2.91 0.9,-0.95 1.9,-1.68 3.03,-2.19 1.13,-0.51 2.29,-0.76 3.49,-0.76 1.52,0 2.94,0.35 4.26,1.04 1.32,0.69 2.44,1.67 3.37,2.92 0.57,0.75 0.98,1.6 1.25,2.53 0.27,0.94 0.41,2 0.41,3.21 0,0.09 -0.01,0.24 -0.02,0.44 -0.01,0.2 -0.02,0.35 -0.02,0.44l-14.05 0 -0.01 0zm20.63 -10.06l0 1.98c0.59,-0.79 1.28,-1.39 2.04,-1.77 0.77,-0.39 1.65,-0.58 2.64,-0.58 1.26,0 2.37,0.24 3.31,0.72 0.95,0.48 1.73,1.2 2.35,2.15 0.41,0.64 0.69,1.36 0.87,2.18 0.17,0.81 0.26,2 0.26,3.57l0 9.29 -4.09 0 0 -7.78c0,-2.35 -0.27,-3.96 -0.81,-4.83 -0.55,-0.87 -1.49,-1.3 -2.81,-1.3 -1.36,0 -2.34,0.48 -2.94,1.44 -0.59,0.97 -0.9,2.61 -0.9,4.95l0 7.52 -3.96 0 0 -17.55 4.01 0 0.01 0.01zm16.29 17.55l0 -13.92 -2.68 0 0 -3.63 2.68 0 0 -5.69 4.09 0 0 5.69 2.72 0 0 3.63 -2.72 0 0 13.92 -4.09 0zm11.87 -8.92c0,1.48 0.49,2.72 1.48,3.71 0.98,1 2.18,1.5 3.59,1.5 1.28,0 2.41,-0.5 3.4,-1.5 0.98,-1.01 1.46,-2.18 1.46,-3.51 0,-1.42 -0.49,-2.66 -1.48,-3.67 -0.98,-1.03 -2.13,-1.55 -3.45,-1.55 -1.38,0 -2.56,0.49 -3.54,1.45 -0.98,0.98 -1.46,2.17 -1.46,3.57l0 -0.01zm10.39 8.92l0 -2.16c-0.49,0.87 -1.18,1.52 -2.07,1.93 -0.89,0.42 -2.02,0.62 -3.41,0.62 -2.59,0 -4.76,-0.89 -6.5,-2.65 -1.74,-1.77 -2.6,-3.97 -2.6,-6.59 0,-1.24 0.21,-2.41 0.65,-3.51 0.44,-1.11 1.06,-2.09 1.87,-2.92 0.87,-0.93 1.83,-1.61 2.9,-2.04 1.07,-0.44 2.26,-0.66 3.59,-0.66 1.27,0 2.37,0.21 3.3,0.64 0.92,0.43 1.66,1.07 2.22,1.93l0 -2.12 4.01 0 0 17.55 -3.96 0 0 -0.02zm21.43 -17.55l3.66 0 0 14.64c0,3.04 -0.81,5.43 -2.43,7.17 -1.63,1.74 -3.86,2.6 -6.68,2.6 -2.12,0 -3.9,-0.5 -5.32,-1.5 -1.42,-0.99 -2.48,-2.47 -3.14,-4.43l3.96 0c0.43,0.78 1.03,1.4 1.82,1.84 0.78,0.45 1.66,0.67 2.63,0.67 1.63,0 2.95,-0.53 3.97,-1.59 1.02,-1.06 1.52,-2.45 1.52,-4.19l0 -0.17c-0.78,0.82 -1.68,1.44 -2.7,1.86 -1.01,0.42 -2.12,0.63 -3.32,0.63 -1.17,0 -2.28,-0.2 -3.33,-0.6 -1.05,-0.41 -1.97,-0.99 -2.79,-1.74 -0.87,-0.82 -1.56,-1.82 -2.05,-2.97 -0.5,-1.15 -0.75,-2.32 -0.75,-3.51 0,-2.66 0.83,-4.85 2.52,-6.58 1.68,-1.73 3.81,-2.59 6.4,-2.59 1.18,0 2.27,0.2 3.27,0.63 0.99,0.42 1.92,1.06 2.79,1.91l0 -2.09 -0.02 -0.01zm-10.91 8.46c0,1.53 0.51,2.82 1.55,3.85 1.03,1.03 2.29,1.55 3.79,1.55 1.37,0 2.58,-0.52 3.63,-1.57 1.05,-1.04 1.58,-2.26 1.58,-3.63 0,-1.51 -0.52,-2.78 -1.56,-3.84 -1.03,-1.06 -2.26,-1.59 -3.68,-1.59 -1.48,0 -2.72,0.51 -3.75,1.52 -1.03,1.02 -1.55,2.25 -1.55,3.71l-0.01 0zm21.21 0.19c0,1.63 0.45,2.91 1.34,3.87 0.9,0.96 2.11,1.42 3.64,1.42 1.51,0 2.72,-0.49 3.61,-1.45 0.9,-0.97 1.34,-2.28 1.34,-3.93 0,-1.49 -0.47,-2.69 -1.41,-3.64 -0.95,-0.96 -2.13,-1.42 -3.55,-1.42 -1.48,0 -2.67,0.48 -3.59,1.44 -0.93,0.96 -1.38,2.2 -1.38,3.72l-0 -0.01zm-4.21 0.03c0,-1.23 0.22,-2.4 0.68,-3.51 0.45,-1.11 1.11,-2.1 1.96,-2.96 0.89,-0.89 1.88,-1.57 2.98,-2.03 1.11,-0.48 2.26,-0.71 3.45,-0.71 1.26,0 2.43,0.21 3.5,0.63 1.07,0.42 2.05,1.05 2.95,1.89 0.92,0.89 1.62,1.89 2.12,3.05 0.5,1.15 0.75,2.34 0.75,3.55 0,1.34 -0.21,2.56 -0.65,3.66 -0.44,1.11 -1.09,2.11 -1.96,2.99 -0.87,0.91 -1.87,1.59 -2.98,2.05 -1.12,0.47 -2.33,0.69 -3.64,0.69 -1.32,0 -2.52,-0.23 -3.6,-0.7 -1.09,-0.47 -2.08,-1.17 -2.97,-2.11 -0.85,-0.92 -1.5,-1.92 -1.93,-3.02 -0.44,-1.1 -0.65,-2.26 -0.65,-3.49l0 0.01zm24.97 -8.69l0 1.98c0.59,-0.79 1.28,-1.39 2.04,-1.77 0.77,-0.39 1.65,-0.58 2.64,-0.58 1.26,0 2.37,0.24 3.32,0.72 0.95,0.48 1.73,1.2 2.35,2.15 0.41,0.64 0.69,1.36 0.87,2.18 0.17,0.81 0.26,2 0.26,3.57l0 9.29 -4.09 0 0 -7.78c0,-2.35 -0.27,-3.96 -0.81,-4.83 -0.55,-0.87 -1.49,-1.3 -2.81,-1.3 -1.36,0 -2.34,0.48 -2.94,1.44 -0.59,0.97 -0.9,2.61 -0.9,4.95l0 7.52 -3.96 0 0 -17.55 4.01 0 0 0.01z"/>
 </g>
</svg>
